<svg xmlns="http://www.w3.org/2000/svg" xmlns:xlink="http://www.w3.org/1999/xlink" id="Layer_1" x="0" y="0" version="1.1" viewBox="0 0 1400 1400" xml:space="preserve"><style type="text/css">.st0{fill:#f6f6f6}.st1{fill:none;stroke:#3aadaa;stroke-width:1.9819}.st1,.st2{opacity:.24;enable-background:new}.st2,.st3{fill:none;stroke:#3aadaa;stroke-width:1.982}</style><g><path d="M350,51.4c152.8,0,350,44.3,350,44.3S897.2,140,1050,140c148.9,0,339.8-42,349.6-44.2V0H0.4v95.6 C10.2,93.4,201.1,51.4,350,51.4z" class="st0"/><path d="M0,95.2c0,0,197.2-44.5,350-44.5s350,44.5,350,44.5s197.2,44.5,350,44.5s350-44.5,350-44.5" class="st1"/><path d="M0,95.2c0,0,197.2-22.3,350-22.3s350,22.3,350,22.3s197.2,22.3,350,22.3s350-22.3,350-22.3" class="st2"/><path d="M0,95.2c0,0,197.2-89.1,350-89.1s350,89.1,350,89.1s197.2,89.1,350,89.1s350-89.1,350-89.1" class="st2"/><path d="M0,95.2c0,0,197.2-66.8,350-66.8s350,66.8,350,66.8S897.2,162,1050,162s350-66.8,350-66.8" class="st3"/></g></svg>