<svg xmlns="http://www.w3.org/2000/svg" xmlns:xlink="http://www.w3.org/1999/xlink" id="Waves" x="0" y="0" version="1.1" viewBox="0 -840 1400 1400" xml:space="preserve"><style type="text/css">.st0{fill:url(#SVGID_1_)}.st1,.st2{fill:#fff;fill-opacity:.3}.st2{fill-opacity:.35}.st3{fill:url(#SVGID_2_)}</style><linearGradient id="SVGID_1_" x1="11045.08" x2="11045.08" y1="1173.181" y2="1173.485" gradientTransform="matrix(-1920 0 0 165.28 21207254 -193451.7031)" gradientUnits="userSpaceOnUse"><stop offset="0" style="stop-color:#fff"/><stop offset="1" style="stop-color:#fff"/></linearGradient><path d="M0,560v-43.9c264.3-45.2,505-41.8,722,10.2c265.1,63.5,491.1,36.1,678-82.3v116H0z" class="st0"/><path d="M0,560v-45c196.1-53,439.9-50,731.5,9c356.8,72.3,668.5-80,668.5-80v116H0z" class="st1"/><path d="M0,560v-45c271.3-71.3,513.5-78.2,726.4-20.7c266.6,72,491.1,55.2,673.6-50.3v116H0z" class="st1"/><path d="M0,560v-42c291.1-78.6,541.7-91.9,751.9-39.9C1067.2,556,1302,492.6,1400,444v116H0z" class="st2"/><linearGradient id="SVGID_2_" x1="645.858" x2="790.134" y1="-13971.114" y2="-13027.348" gradientTransform="matrix(1 0 0 1 0 13896.9502)" gradientUnits="userSpaceOnUse"><stop offset="0" style="stop-color:#fff;stop-opacity:0"/><stop offset=".09" style="stop-color:#fff;stop-opacity:3.000000e-02"/><stop offset=".22" style="stop-color:#fff;stop-opacity:.1"/><stop offset=".37" style="stop-color:#fff;stop-opacity:.23"/><stop offset=".54" style="stop-color:#fff;stop-opacity:.41"/><stop offset=".73" style="stop-color:#fff;stop-opacity:.63"/><stop offset=".93" style="stop-color:#fff;stop-opacity:.9"/><stop offset="1" style="stop-color:#fff"/></linearGradient><rect width="1400" height="560" class="st3"/></svg>