<svg xmlns="http://www.w3.org/2000/svg" xmlns:xlink="http://www.w3.org/1999/xlink" id="Waves" x="0" y="0" version="1.1" viewBox="0 -1079.7 1400 1400" xml:space="preserve"><style type="text/css">.st0,.st1{opacity:.2;fill:#3aadaa;enable-background:new}.st1{opacity:.5}.st2{fill:url(#SVGID_1_)}</style><path d="M1400,106.5c-289-129.3-354.6-112.7-741.9,0c-351.6,102.3-518.9,68.4-658.1,0v213.7l1400,0.1V106.5z" class="st0"/><path d="M1400,67.3C1159-71.8,908.3,35,727.3,115.7C476.3,227.6,196.1,238.8,0,106.5v213.8h1400V67.3z" class="st1"/><path d="M1400,106.5C1248.7,9.6,1077.8-9.3,747.9,128C540.7,214.2,121.5,207.2,0,106.5v213.7l0,0l1400,0.1V106.5z" class="st1"/><linearGradient id="SVGID_1_" x1="710.352" x2="685.236" y1="323.725" y2="-803.157" gradientTransform="matrix(1 0 0 -1 0 72.6983)" gradientUnits="userSpaceOnUse"><stop offset="0" style="stop-color:#383e45"/><stop offset=".507" style="stop-color:#3aadaa"/><stop offset=".668" style="stop-color:#383e45"/></linearGradient><path d="M1400,106.5C1007.7-56.2,874.6,207.2,364.5,211.7C105.9,214,0.8,106.7,0,106.5v213.7l1400,0.1V106.5z" class="st2"/></svg>