<svg xmlns="http://www.w3.org/2000/svg" xmlns:xlink="http://www.w3.org/1999/xlink" id="Waves" x="0" y="0" version="1.1" viewBox="0 0 1400 1400" xml:space="preserve"><style type="text/css">.st0{fill:url(#SVGID_1_)}.st1{opacity:.22;fill:url(#SVGID_2_);enable-background:new}.st2{fill:url(#SVGID_3_)}</style><radialGradient id="SVGID_1_" cx="700.05" cy="6519.443" r="734.102" fx="-9.776" fy="6332.231" gradientTransform="matrix(1 0 0 -1 0 6708.9502)" gradientUnits="userSpaceOnUse"><stop offset="0" style="stop-color:#7c6576"/><stop offset=".98" style="stop-color:#7c6576;stop-opacity:.3"/></radialGradient><path d="M0,245c0,0,84.1,25.3,239.7-51.1c112-55,271.8-35.4,314.3-2c142.4,111.8,138.5,138.7,249,148	s155.6-59.1,286.3-39.4c65.4,9.9,172.7,129.3,310.8,53.4V0H0V245z" class="st0"/><linearGradient id="SVGID_2_" x1="303.68" x2="1025.847" y1="6686.581" y2="6284.45" gradientTransform="matrix(1 0 0 -1 0 6708.9502)" gradientUnits="userSpaceOnUse"><stop offset="0" style="stop-color:#7c6576"/><stop offset="1" style="stop-color:#7c6576"/></linearGradient><path d="M0,486c57.8-4.9,277-192.5,390.6-225s211.9-37.5,420.2,59.2c104.2,48.4,195.2,29.7,240.9,12.9	c61.5-22.5,156.9-161,348.3-106.7V0H0l-0.2,486" class="st1"/><linearGradient id="SVGID_3_" x1="699.95" x2="699.95" y1="580.001" y2="-31.011" gradientTransform="matrix(1 0 0 -1 0 572)" gradientUnits="userSpaceOnUse"><stop offset=".094" style="stop-color:#7c6576"/><stop offset=".385" style="stop-color:#7c6576;stop-opacity:.5412"/><stop offset=".728" style="stop-color:#7c6576;stop-opacity:0"/></linearGradient><path d="M0,273.3c62.5,34.5,113.6,11.9,138.5,0s148.2-130.8,263-134.2c107.8-3.2,135.4,37.5,222.5,117.4	s158.7,63.3,196,39.5s113.2-98.8,234.7-40.5s110.2,49.3,137.1,48.4c28.5-1,84.1-46.9,129.1-64.1s79-6.9,79-6.9V0H0V273.3z" class="st2"/></svg>