<svg xmlns="http://www.w3.org/2000/svg" xmlns:xlink="http://www.w3.org/1999/xlink" viewBox="0 0 1400 570"><defs><linearGradient id="SVGID_1_" x1="1072.686" x2="1074.11" y1="636.428" y2="637.852" gradientTransform="matrix(1 0 0 -1 0 572)" gradientUnits="userSpaceOnUse"><stop offset="0" style="stop-color:#3aadaa;stop-opacity:.1"/><stop offset="1" style="stop-color:#fff;stop-opacity:0"/></linearGradient><linearGradient id="SVGID_2_" x1="69.172" x2="69.188" y1="52.951" y2="52.922" gradientTransform="matrix(1 0 0 -1 0 572)" gradientUnits="userSpaceOnUse"><stop offset="0" style="stop-color:#3aadaa;stop-opacity:.1"/><stop offset="1" style="stop-color:#fff;stop-opacity:0"/></linearGradient><linearGradient id="SVGID_3_" x1="1105.615" x2="1105.618" y1="154.42" y2="154.416" gradientTransform="matrix(1 0 0 -1 0 572)" gradientUnits="userSpaceOnUse"><stop offset="0" style="stop-color:#3aadaa;stop-opacity:.1"/><stop offset="1" style="stop-color:#fff;stop-opacity:0"/></linearGradient><linearGradient id="SVGID_4_" x1="357.109" x2="387.248" y1="182.44" y2="-5.095" gradientTransform="matrix(1 0 0 -1 0 572)" gradientUnits="userSpaceOnUse"><stop offset=".338" style="stop-color:#3aadaa;stop-opacity:.1"/><stop offset="1" style="stop-color:#fff;stop-opacity:0"/></linearGradient><linearGradient id="SVGID_5_" x1="1117.595" x2="1117.595" y1="160.608" y2="160.607" gradientTransform="matrix(1 0 0 -1 0 572)" gradientUnits="userSpaceOnUse"><stop offset="0" style="stop-color:#3aadaa;stop-opacity:.1"/><stop offset="1" style="stop-color:#fff;stop-opacity:0"/></linearGradient><linearGradient id="SVGID_6_" x1="5.223" x2="5.269" y1="52.142" y2="52.058" gradientTransform="matrix(1 0 0 -1 0 572)" gradientUnits="userSpaceOnUse"><stop offset="0" style="stop-color:#3aadaa;stop-opacity:.1"/><stop offset="1" style="stop-color:#fff;stop-opacity:0"/></linearGradient><linearGradient id="SVGID_7_" x1="1317.841" x2="1147.051" y1="301.531" y2="8.509" gradientTransform="matrix(1 0 0 -1 0 572)" gradientUnits="userSpaceOnUse"><stop offset="0" style="stop-color:#3aadaa;stop-opacity:.1"/><stop offset="1" style="stop-color:#fff;stop-opacity:0"/></linearGradient><linearGradient id="SVGID_8_" x1="1143.081" x2="1143.082" y1="174.534" y2="174.533" gradientTransform="matrix(1 0 0 -1 0 572)" gradientUnits="userSpaceOnUse"><stop offset="0" style="stop-color:#3aadaa;stop-opacity:.1"/><stop offset="1" style="stop-color:#fff;stop-opacity:0"/></linearGradient><linearGradient id="SVGID_9_" x1="1136.575" x2="1136.576" y1="170.895" y2="170.894" gradientTransform="matrix(1 0 0 -1 0 572)" gradientUnits="userSpaceOnUse"><stop offset="0" style="stop-color:#3aadaa;stop-opacity:.1"/><stop offset="1" style="stop-color:#fff;stop-opacity:0"/></linearGradient><linearGradient id="SVGID_10_" x1="1123.528" x2="1123.528" y1="163.765" y2="163.765" gradientTransform="matrix(1 0 0 -1 0 572)" gradientUnits="userSpaceOnUse"><stop offset="0" style="stop-color:#3aadaa;stop-opacity:.1"/><stop offset="1" style="stop-color:#fff;stop-opacity:0"/></linearGradient><linearGradient id="SVGID_11_" x1="1111.073" x2="1111.075" y1="157.205" y2="157.202" gradientTransform="matrix(1 0 0 -1 0 572)" gradientUnits="userSpaceOnUse"><stop offset="0" style="stop-color:#3aadaa;stop-opacity:.1"/><stop offset="1" style="stop-color:#fff;stop-opacity:0"/></linearGradient><linearGradient id="SVGID_12_" x1="27.773" x2="27.783" y1="52.05" y2="52.031" gradientTransform="matrix(1 0 0 -1 0 572)" gradientUnits="userSpaceOnUse"><stop offset="0" style="stop-color:#3aadaa;stop-opacity:.1"/><stop offset="1" style="stop-color:#fff;stop-opacity:0"/></linearGradient><linearGradient id="SVGID_13_" x1="37.287" x2="37.292" y1="52.124" y2="52.114" gradientTransform="matrix(1 0 0 -1 0 572)" gradientUnits="userSpaceOnUse"><stop offset="0" style="stop-color:#3aadaa;stop-opacity:.1"/><stop offset="1" style="stop-color:#fff;stop-opacity:0"/></linearGradient><linearGradient id="SVGID_14_" x1="14.877" x2="14.887" y1="52.043" y2="52.024" gradientTransform="matrix(1 0 0 -1 0 572)" gradientUnits="userSpaceOnUse"><stop offset="0" style="stop-color:#3aadaa;stop-opacity:.1"/><stop offset="1" style="stop-color:#fff;stop-opacity:0"/></linearGradient><linearGradient id="SVGID_15_" x1="42.232" x2="42.241" y1="52.233" y2="52.218" gradientTransform="matrix(1 0 0 -1 0 572)" gradientUnits="userSpaceOnUse"><stop offset="0" style="stop-color:#3aadaa;stop-opacity:.1"/><stop offset="1" style="stop-color:#fff;stop-opacity:0"/></linearGradient><linearGradient id="SVGID_16_" x1="1.458" x2="1.548" y1="52.263" y2="52.096" gradientTransform="matrix(1 0 0 -1 0 572)" gradientUnits="userSpaceOnUse"><stop offset="0" style="stop-color:#3aadaa;stop-opacity:.1"/><stop offset="1" style="stop-color:#fff;stop-opacity:0"/></linearGradient><linearGradient id="SVGID_17_" x1="57.969" x2="57.974" y1="52.558" y2="52.549" gradientTransform="matrix(1 0 0 -1 0 572)" gradientUnits="userSpaceOnUse"><stop offset="0" style="stop-color:#3aadaa;stop-opacity:.1"/><stop offset="1" style="stop-color:#fff;stop-opacity:0"/></linearGradient><linearGradient id="SVGID_18_" x1="52.593" x2="52.603" y1="52.412" y2="52.394" gradientTransform="matrix(1 0 0 -1 0 572)" gradientUnits="userSpaceOnUse"><stop offset="0" style="stop-color:#3aadaa;stop-opacity:.1"/><stop offset="1" style="stop-color:#fff;stop-opacity:0"/></linearGradient><linearGradient id="SVGID_19_" x1="44.163" x2="20.721" y1="81.705" y2="42.636" gradientTransform="matrix(1 0 0 -1 0 572)" gradientUnits="userSpaceOnUse"><stop offset=".254" style="stop-color:#3aadaa;stop-opacity:.1"/><stop offset="1" style="stop-color:#fff;stop-opacity:0"/></linearGradient><linearGradient id="SVGID_20_" x1="1007.743" x2="1079.742" y1="353.072" y2="34.934" gradientTransform="matrix(1 0 0 -1 0 572)" gradientUnits="userSpaceOnUse"><stop offset=".245" style="stop-color:#3aadaa;stop-opacity:.15"/><stop offset="1" style="stop-color:#fff;stop-opacity:0"/></linearGradient><linearGradient id="SVGID_21_" x1="1044.154" x2="1147.649" y1="371.617" y2="245.606" gradientTransform="matrix(1 0 0 -1 0 572)" gradientUnits="userSpaceOnUse"><stop offset="0" style="stop-color:#3aadaa;stop-opacity:.1"/><stop offset="1" style="stop-color:#fff;stop-opacity:0"/></linearGradient><linearGradient id="SVGID_22_" x1="398.878" x2="395.529" y1="108.937" y2="15.17" gradientTransform="matrix(1 0 0 -1 0 572)" gradientUnits="userSpaceOnUse"><stop offset="0" style="stop-color:#3aadaa;stop-opacity:.25"/><stop offset=".929" style="stop-color:#3aadaa;stop-opacity:.15"/></linearGradient><linearGradient id="SVGID_23_" x1="1017" x2="1017" y1="182.947" y2="-2.078" gradientTransform="matrix(1 0 0 -1 0 572)" gradientUnits="userSpaceOnUse"><stop offset=".013" style="stop-color:#3aadaa;stop-opacity:.25"/><stop offset=".875" style="stop-color:#3aadaa;stop-opacity:.15"/></linearGradient></defs><path style="fill:url(#SVGID_1_)" d="M75,518.8c57.4,22.6,132.1,42.3,224.8,42.3c151.5,0,268.1-49.8,369.5-113.6c37.9,10.4,79.3,20.4,126.1,24.6 c16,1.4,32.7,2.2,50.1,2c130.5-1.2,210-35.7,254.3-53.6c14.9-7.3,31.9-16.5,50.1-26.9l0,0C935.8,421.4,829.1,342,699.8,353 c-105.3,9-278,72.8-400,91C157,465.3,0,473,0,473v47C17.9,520,43.7,520.2,75,518.8z"/><path style="fill:url(#SVGID_2_)" d="M69.5,519.1c-0.2,0-0.4,0-0.6,0C69.1,519.1,69.3,519.1,69.5,519.1z"/><path style="fill:url(#SVGID_3_)" d="M1106.3,417.2c-0.5,0.2-0.9,0.5-1.4,0.7C1105.4,417.7,1105.8,417.5,1106.3,417.2z"/><path style="fill:url(#SVGID_4_)" d="M299.8,561.1c151.5,0,268.1-49.8,369.5-113.6c-70.7-19.4-129.6-40.3-190.3-27.7 c-61.6,12.8-114.6,38.4-179.2,59.9c-83.4,27.8-164.3,36.5-224.8,39.1C132.5,541.4,207.1,561.1,299.8,561.1z"/><path style="fill:url(#SVGID_4_)" d="M1118,411.2c-0.3,0.1-0.6,0.3-0.8,0.4C1117.4,411.5,1117.7,411.3,1118,411.2z"/><path style="fill:url(#SVGID_6_)" d="M4.5,520c0.5,0,1.1,0,1.6,0C5.5,520,5,520,4.5,520z"/><path style="fill:url(#SVGID_7_)" d="M1400,210.5c-49.2,55.1-163.7,133.7-250.1,183.1l0,0c20.9-2.7,42.9-6.4,66-11.4c76.4-16.3,171.7-78.3,183-85.8"/><path style="fill:url(#SVGID_8_)" d="M1143.3,397.4c-0.1,0.1-0.3,0.2-0.4,0.2C1143,397.5,1143.1,397.4,1143.3,397.4z"/><path style="fill:url(#SVGID_9_)" d="M1137,400.9c-0.3,0.2-0.6,0.3-0.8,0.5C1136.4,401.2,1136.7,401,1137,400.9z"/><path style="fill:url(#SVGID_10_)" d="M1124.1,407.9c-0.4,0.2-0.8,0.4-1.2,0.6C1123.3,408.3,1123.7,408.1,1124.1,407.9z"/><path style="fill:url(#SVGID_11_)" d="M1111.6,414.5c-0.4,0.2-0.7,0.4-1.1,0.5C1110.9,414.9,1111.3,414.7,1111.6,414.5z"/><path style="fill:url(#SVGID_12_)" d="M28,520c-0.1,0-0.2,0-0.4,0C27.7,520,27.9,520,28,520z"/><path style="fill:url(#SVGID_13_)" d="M37.4,519.9c-0.1,0-0.1,0-0.2,0C37.3,519.9,37.3,519.9,37.4,519.9z"/><path style="fill:url(#SVGID_14_)" d="M14.7,520c0.1,0,0.2,0,0.4,0C14.9,520,14.8,520,14.7,520z"/><path style="fill:url(#SVGID_15_)" d="M42.4,519.8c-0.1,0-0.2,0-0.3,0C42.2,519.8,42.3,519.8,42.4,519.8z"/><path style="fill:url(#SVGID_16_)" d="M0,520c1,0,2.1,0,3.2,0C2.1,520,1,520,0,520z"/><path style="fill:url(#SVGID_17_)" d="M58.1,519.5c-0.1,0-0.1,0-0.2,0C57.9,519.5,58,519.5,58.1,519.5z"/><path style="fill:url(#SVGID_18_)" d="M52.8,519.6c-0.1,0-0.2,0-0.4,0C52.6,519.6,52.7,519.6,52.8,519.6z"/><path style="fill:url(#SVGID_19_)" d="M75,518.8c-29.5-11.6-54.5-24-75-34.8v36C17.9,520,43.7,520.2,75,518.8z"/><path style="fill:url(#SVGID_20_)" d="M1400,227.7c-80.3-13.6-171.6-70.4-300.2-43.7c-154.6,33.7-274.4,165.2-430.6,263.5l0,0 c37.9,10.4,79.3,20.4,126.1,24.6c16,1.4,32.7,2.2,50.1,2c130.5-1.2,210-35.7,254.3-53.6c14.9-7.3,31.9-16.5,50.1-26.9 c20.9-2.7,42.9-6.4,66-11.4c76.4-16.3,171.7-78.3,183-85.8"/><path style="fill:url(#SVGID_21_)" d="M1397.9,56.5c-80.5-29.1-215-28.3-298,36.2C968,195.3,932.1,352.1,795.4,472.1c16,1.4,32.7,2.2,50.1,2 c130.5-1.2,210-35.7,254.3-53.6c14.9-7.3,31.9-16.5,50.1-26.9c20.9-2.7,42.9-6.4,66-11.4c76.4-16.3,171.7-78.3,183-85.8"/><path style="fill:url(#SVGID_22_)" d="M669.3,447.5c-101.3,63.8-218,113.6-369.5,113.6c-92.7,0-167.3-19.7-224.8-42.3c-31.3,1.4-57.2,1.2-75,1.2v50 h634c67.3-27.3,119.1-60.9,161.4-97.9C748.5,467.9,707.2,457.9,669.3,447.5z"/><path style="fill:url(#SVGID_23_)" d="M1400,569.9l-1.1-273.4c-11.3,7.5-106.6,69.4-183,85.8c-23.1,5-45.1,8.7-66,11.4 c-18.2,10.4-35.2,19.6-50.1,26.9c-44.3,17.9-123.8,52.4-254.3,53.6c-17.4,0.2-34.1-0.6-50.1-2c-42.2,37.1-94.1,70.6-161.4,97.9 L1400,569.9L1400,569.9z"/></svg>